<?xml version="1.0" encoding="UTF-8"?>
<svg version="1.1" xmlns="http://www.w3.org/2000/svg" width="500" height="500">
<path d="M0 0 C1.44224299 1.19750896 2.85894661 2.42565323 4.27050781 3.65917969 C4.68300781 3.12808594 5.09550781 2.59699219 5.52050781 2.04980469 C10.51437311 -4.05876268 15.47439037 -7.7304254 23.27050781 -9.34082031 C32.46445482 -10.25494124 40.119028 -7.93270438 47.29394531 -2.12988281 C59.91170246 9.29093295 65.48575643 23.24294926 66.47363281 40.13183594 C66.70058051 57.51224743 62.66552443 75.21442001 50.68457031 88.40527344 C44.49217889 94.23426161 36.63769688 96.93159803 28.27050781 97.65917969 C28.27050781 99.30917969 28.27050781 100.95917969 28.27050781 102.65917969 C29.29789063 103.07167969 30.32527344 103.48417969 31.38378906 103.90917969 C50.18540606 111.657849 64.41575353 123.13167997 73.27050781 141.65917969 C81.25817755 161.52416702 79.3790689 181.19863308 71.27050781 200.65917969 C72.33978516 201.27792969 72.33978516 201.27792969 73.43066406 201.90917969 C82.9710351 207.66165105 90.61771312 214.47023094 93.80102539 225.49682617 C97.8887324 244.32408617 91.9641089 263.6215772 82.27050781 279.65917969 C73.78577147 292.6937537 62.39965633 303.06951614 50.27050781 312.65917969 C49.48289062 313.31402344 48.69527344 313.96886719 47.88378906 314.64355469 C13.86064709 342.76185384 -33.27894757 363.1601144 -77.72949219 364.65917969 C-78.64988281 364.69914062 -79.57027344 364.73910156 -80.51855469 364.78027344 C-106.02633815 365.36468357 -134.71674781 358.47896756 -153.72949219 340.65917969 C-154.65375 339.92054688 -154.65375 339.92054688 -155.59667969 339.16699219 C-164.07537303 331.89415745 -169.84314512 318.52768071 -170.94458008 307.50708008 C-171.9691935 288.66040286 -167.85800341 268.64145826 -155.72949219 253.65917969 C-154.41380379 256.66537469 -154.80712853 257.89946964 -155.83886719 261.09277344 C-156.37852886 262.43034184 -156.92584784 263.76483814 -157.47949219 265.09667969 C-163.77719878 281.21429199 -166.97065569 298.06891001 -160.99902344 314.82324219 C-159.05243406 319.17162339 -156.6422028 322.90331601 -153.72949219 326.65917969 C-152.64667969 328.17511719 -152.64667969 328.17511719 -151.54199219 329.72167969 C-140.04222099 342.89546821 -120.75281727 350.49844922 -103.72949219 352.65917969 C-50.47820733 355.80768514 4.42229279 336.05767737 44.27050781 300.65917969 C45.12644531 299.89992188 45.98238281 299.14066406 46.86425781 298.35839844 C48.56409402 296.83520184 50.25585024 295.30292883 51.93847656 293.76074219 C53.36930576 292.47131822 54.82562686 291.20874024 56.32128906 289.99511719 C71.33443197 277.78001494 82.63684513 258.03116763 84.68066406 238.79980469 C84.99926916 230.66312058 84.04151895 224.37891368 79.27050781 217.65917969 C78.72007812 217.11777344 78.16964844 216.57636719 77.60253906 216.01855469 C76.27050781 214.65917969 76.27050781 214.65917969 76.27050781 212.65917969 C73.04310763 210.92134882 69.7503973 209.793719 66.27050781 208.65917969 C65.72523438 209.34882813 65.17996094 210.03847656 64.61816406 210.74902344 C52.56693587 225.7667078 39.4534897 235.29241222 22.94628906 245.03027344 C16.0903692 249.1384376 10.6072058 254.06276724 5.40039062 260.13012695 C-3.28446597 270.14721474 -13.27486472 274.85272175 -26.51464844 275.87402344 C-32.65549055 276.08519407 -37.1382118 275.19108024 -42.72949219 272.65917969 C-42.72949219 272.32917969 -42.72949219 271.99917969 -42.72949219 271.65917969 C-41.52035156 271.52382813 -40.31121094 271.38847656 -39.06542969 271.24902344 C-22.96154154 269.22468561 -11.37290046 264.49038487 0.27050781 252.65917969 C-0.51710938 252.63339844 -1.30472656 252.60761719 -2.11621094 252.58105469 C-10.99783677 252.1185795 -19.69093361 250.67845898 -27.72949219 246.65917969 C-33.17703796 246.20521754 -37.35081422 247.30327512 -42.49511719 249.10058594 C-44.72949219 249.65917969 -44.72949219 249.65917969 -47.72949219 248.65917969 C-46.75496094 247.93601562 -46.75496094 247.93601562 -45.76074219 247.19824219 C-44.50777344 246.25078125 -44.50777344 246.25078125 -43.22949219 245.28417969 C-41.97652344 244.34445312 -41.97652344 244.34445312 -40.69824219 243.38574219 C-40.04855469 242.81597656 -39.39886719 242.24621094 -38.72949219 241.65917969 C-38.72949219 240.99917969 -38.72949219 240.33917969 -38.72949219 239.65917969 C-39.87525815 238.61162224 -41.07342779 237.62108252 -42.29199219 236.65917969 C-51.05379831 229.16675184 -58.77778668 217.39688099 -59.72949219 205.65917969 C-55.82348517 206.96118203 -55.35763788 208.4954078 -53.22949219 211.97167969 C-43.26076217 227.29837429 -30.31470434 238.7974423 -12.72949219 244.65917969 C-2.67505825 245.55323285 7.58372004 244.72117095 16.00488281 238.70605469 C17.80013189 237.18699778 19.57438785 235.64285369 21.32910156 234.07714844 C24.61539794 231.37566443 28.01501749 229.36597136 31.70800781 227.28417969 C48.2754712 217.7391045 59.41542732 203.73548228 65.30957031 185.43261719 C68.44592871 173.38548352 67.75249001 161.75884288 65.27050781 149.65917969 C64.61050781 149.65917969 63.95050781 149.65917969 63.27050781 149.65917969 C63.08488281 150.52542969 62.89925781 151.39167969 62.70800781 152.28417969 C60.51360468 157.4362566 57.09539015 160.23902026 52.12597656 162.73730469 C46.73421076 164.81469256 41.85116712 165.30175034 36.27050781 163.65917969 C31.24615085 161.35015568 28.13414974 157.95135103 25.93066406 152.90527344 C24.29147785 147.32816058 24.35547139 142.48925254 26.95800781 137.28417969 C30.34378503 133.440865 32.6863528 131.09122196 37.70800781 129.72167969 C41.88655271 129.64837188 43.83141072 130.31434076 47.27050781 132.65917969 C50.23858374 136.31980666 50.59470854 139.01230266 50.27050781 143.65917969 C48.45800781 143.40917969 48.45800781 143.40917969 46.27050781 142.65917969 C45.27050781 141.32584635 44.27050781 139.99251302 43.27050781 138.65917969 C41.42782913 137.57349465 41.42782913 137.57349465 39.27050781 137.65917969 C36.44941841 138.45102128 36.44941841 138.45102128 34.27050781 140.65917969 C33.00827224 145.79227102 32.64952988 149.87304607 35.27050781 154.65917969 C40.0770772 157.35554788 45.06357165 156.94691659 50.27050781 155.65917969 C54.67152434 153.37717112 57.22088982 151.1899142 59.27050781 146.65917969 C60.15028552 143.30044501 60.60710267 141.42350519 59.18847656 138.20214844 C49.02702543 124.37064723 36.415077 115.43779509 19.36035156 112.08886719 C3.9312639 109.94322921 -11.84322166 113.51388436 -24.60449219 122.53417969 C-35.03036838 130.64823116 -42.63924443 139.90723078 -46.72949219 152.65917969 C-49.2231079 151.45536521 -51.41092302 150.20489247 -53.72949219 148.65917969 C-56.85471052 148.49218736 -56.85471052 148.49218736 -59.72949219 148.65917969 C-61.12442468 155.86204544 -61.12442468 155.86204544 -58.85449219 162.59667969 C-57.80261719 164.11261719 -57.80261719 164.11261719 -56.72949219 165.65917969 C-56.39949219 166.64917969 -56.06949219 167.63917969 -55.72949219 168.65917969 C-56.90917969 170.78027344 -56.90917969 170.78027344 -58.60449219 173.09667969 C-61.70100335 177.35258224 -62.94206613 180.39069183 -62.65136719 185.66308594 C-62.62558594 186.40365234 -62.59980469 187.14421875 -62.57324219 187.90722656 C-62.5105555 189.45480408 -62.4323296 191.00182745 -62.33886719 192.54785156 C-62.27636719 194.78808594 -62.27636719 194.78808594 -62.72949219 198.65917969 C-65.91536891 201.01945457 -69.17075202 202.27556246 -72.94042969 203.42089844 C-73.93075195 203.7308374 -74.92107422 204.04077637 -75.94140625 204.36010742 C-76.98522461 204.68567627 -78.02904297 205.01124512 -79.10449219 205.34667969 C-94.21024913 210.23963139 -106.3463007 216.67394359 -118.72949219 226.65917969 C-119.40625 227.1709375 -120.08300781 227.68269531 -120.78027344 228.20996094 C-130.44299188 235.81587013 -137.14356916 247.98930608 -138.66699219 260.15917969 C-139.24185144 272.68033283 -135.37414718 282.62584498 -128.54199219 292.97167969 C-120.88112626 300.29206268 -111.32060999 305.80516272 -100.47949219 305.59667969 C-96.88353778 304.37078614 -93.96810782 302.65217392 -90.72949219 300.65917969 C-88.20473757 299.39680238 -86.41748753 299.56061564 -83.60449219 299.59667969 C-82.69441406 299.60570312 -81.78433594 299.61472656 -80.84667969 299.62402344 C-79.79867187 299.64142578 -79.79867187 299.64142578 -78.72949219 299.65917969 C-81.64199887 302.73615734 -84.69997041 305.16832185 -88.16699219 307.59667969 C-95.12524352 312.60772806 -104.22594414 319.62060927 -105.72949219 328.65917969 C-105.84240724 330.1979755 -105.90409186 331.74130058 -105.91699219 333.28417969 C-105.93117188 334.06019531 -105.94535156 334.83621094 -105.95996094 335.63574219 C-105.91615055 337.88754962 -105.91615055 337.88754962 -103.72949219 339.65917969 C-101.26299021 339.71763778 -101.26299021 339.71763778 -98.72949219 338.65917969 C-96.64808385 336.39137161 -96.64808385 336.39137161 -94.72949219 333.65917969 C-89.85534347 327.84474244 -83.57236803 325.57663744 -76.74121094 322.58496094 C-68.70068696 318.94069468 -61.5798913 314.29852144 -55.79199219 307.53417969 C-54.97408203 306.6021875 -54.97408203 306.6021875 -54.13964844 305.65136719 C-50.20530105 300.09314789 -49.74866725 294.25986646 -50.72949219 287.65917969 C-53.13018368 281.20560979 -56.79311597 276.50888156 -63.06542969 273.56152344 C-74.28650727 269.76083587 -86.49007433 269.91270707 -97.72949219 273.65917969 C-100.06249044 273.69872203 -102.39657407 273.70319701 -104.72949219 273.65917969 C-98.86262598 267.21659297 -90.18355756 264.13528634 -81.72949219 262.65917969 C-78.38780489 262.51974238 -75.07126798 262.53591747 -71.72949219 262.65917969 C-72.05949219 261.99917969 -72.38949219 261.33917969 -72.72949219 260.65917969 C-72.85277148 258.55769787 -72.90507225 256.45174062 -72.91699219 254.34667969 C-72.93117188 253.21617187 -72.94535156 252.08566406 -72.95996094 250.92089844 C-72.73429356 247.72713126 -72.09291873 245.53153679 -70.72949219 242.65917969 C-70.06949219 242.65917969 -69.40949219 242.65917969 -68.72949219 242.65917969 C-68.59994141 243.92761719 -68.59994141 243.92761719 -68.46777344 245.22167969 C-67.22548656 255.35323585 -67.22548656 255.35323585 -61.72949219 263.65917969 C-58.52530246 265.90585696 -55.14838909 267.76284619 -51.72949219 269.65917969 C-45.25836463 273.7071361 -41.93069831 279.90594073 -40.09277344 287.17871094 C-38.73919997 296.42085237 -41.72111132 304.11802758 -47.07714844 311.56933594 C-55.34387058 322.02488285 -66.29823481 327.71408745 -78.24902344 333.08105469 C-79.39757812 333.60183594 -80.54613281 334.12261719 -81.72949219 334.65917969 C-82.81359375 335.13742187 -83.89769531 335.61566406 -85.01464844 336.10839844 C-87.90200225 337.75772141 -88.84738382 338.82130927 -90.35449219 341.72167969 C-92.05394851 344.95787843 -93.24412567 346.40495195 -96.72949219 347.65917969 C-101.43256372 348.31684498 -105.43725886 348.34653784 -109.66699219 346.09667969 C-113.49829575 341.56877547 -115.33018604 336.89577226 -115.08496094 330.90527344 C-113.97270733 323.87729732 -111.34358026 318.03905129 -106.72949219 312.65917969 C-107.52871094 312.52382813 -108.32792969 312.38847656 -109.15136719 312.24902344 C-121.82396368 309.76507553 -132.29987882 304.49203531 -139.72949219 293.65917969 C-147.42515172 280.64513367 -150.88106707 267.86255568 -147.66699219 252.78417969 C-142.07664452 232.7109313 -127.25652591 219.72099534 -109.72949219 209.65917969 C-109.06949219 209.65917969 -108.40949219 209.65917969 -107.72949219 209.65917969 C-108.55449219 208.85480469 -109.37949219 208.05042969 -110.22949219 207.22167969 C-114.66186295 201.22861499 -113.08664176 192.71486789 -112.72949219 185.65917969 C-114.36917969 185.70751953 -114.36917969 185.70751953 -116.04199219 185.75683594 C-119.72949219 185.65917969 -119.72949219 185.65917969 -122.72949219 184.09667969 C-124.72949219 181.65917969 -124.72949219 181.65917969 -124.72949219 178.09667969 C-123.74896554 174.72611932 -123.21029684 173.87707298 -120.72949219 171.65917969 C-121.76009766 171.38654297 -121.76009766 171.38654297 -122.81152344 171.10839844 C-123.71257812 170.85703125 -124.61363281 170.60566406 -125.54199219 170.34667969 C-126.4353125 170.10304687 -127.32863281 169.85941406 -128.24902344 169.60839844 C-130.81429839 168.62672629 -132.05125795 167.80601179 -133.72949219 165.65917969 C-134.43372176 161.93682337 -133.7201517 160.6437095 -131.72949219 157.34667969 C-131.06949219 156.45980469 -130.40949219 155.57292969 -129.72949219 154.65917969 C-130.53386719 154.76230469 -131.33824219 154.86542969 -132.16699219 154.97167969 C-137.06792729 154.5417731 -140.71732902 152.44657725 -144.72949219 149.65917969 C-146.25180093 146.6145622 -146.31024188 143.9453548 -145.72949219 140.65917969 C-144.1843472 137.00986792 -142.23119859 133.63736789 -140.22949219 130.22167969 C-139.70484375 129.29935547 -139.18019531 128.37703125 -138.63964844 127.42675781 C-137.34937898 125.16292139 -136.04592299 122.90787012 -134.72949219 120.65917969 C-136.38658203 120.69011719 -136.38658203 120.69011719 -138.07714844 120.72167969 C-141.45898668 120.66380866 -142.95547785 120.43454887 -145.72949219 118.65917969 C-145.72949219 117.99917969 -145.72949219 117.33917969 -145.72949219 116.65917969 C-142.09949219 115.66917969 -138.46949219 114.67917969 -134.72949219 113.65917969 C-133.57876438 108.51439651 -133.57876438 108.51439651 -135.71386719 104.43652344 C-136.15359863 103.65720459 -136.59333008 102.87788574 -137.04638672 102.07495117 C-137.51931152 101.25712158 -137.99223633 100.43929199 -138.47949219 99.59667969 C-146.85244749 84.30410588 -149.30063129 69.16915183 -145.22949219 52.03417969 C-141.64824025 40.24009204 -136.05322468 28.82243027 -127.72949219 19.65917969 C-127.08753906 18.92570312 -126.44558594 18.19222656 -125.78417969 17.43652344 C-114.31106229 5.0955134 -99.29221121 -1.85952442 -83.35449219 -6.52832031 C-82.50491943 -6.77864014 -81.65534668 -7.02895996 -80.7800293 -7.28686523 C-56.17319275 -14.18835586 -21.47433128 -16.64836637 0 0 Z M-118.72949219 25.65917969 C-121.71160454 29.15677834 -124.28084301 32.77352982 -126.72949219 36.65917969 C-127.27863281 37.48933594 -127.82777344 38.31949219 -128.39355469 39.17480469 C-131.17346059 43.45675387 -131.17346059 43.45675387 -131.29199219 48.34667969 C-130.77636719 49.10980469 -130.26074219 49.87292969 -129.72949219 50.65917969 C-129.13136719 51.64917969 -128.53324219 52.63917969 -127.91699219 53.65917969 C-121.32966335 62.69323067 -112.14165129 68.85011321 -101.18652344 71.20605469 C-96.33368516 71.84213293 -91.49297179 71.94021996 -86.60449219 72.09667969 C-71.50767857 72.70702162 -58.24258767 73.31441114 -47.29199219 85.03417969 C-41.84729287 91.65912058 -37.21137181 99.85113329 -37.72949219 108.65917969 C-39.92135104 105.78731643 -41.96065485 102.84191733 -43.97949219 99.84667969 C-50.32219755 90.84242155 -57.54421959 83.91132149 -68.72949219 81.65917969 C-70.80855046 81.55727882 -72.89023259 81.50449521 -74.97167969 81.48339844 C-107.03220209 80.93724773 -107.03220209 80.93724773 -118.95996094 71.92871094 C-120.8133823 70.4667285 -120.8133823 70.4667285 -123.72949219 69.65917969 C-124.79199219 67.82714844 -124.79199219 67.82714844 -125.72949219 65.65917969 C-126.22449219 64.75619141 -126.22449219 64.75619141 -126.72949219 63.83496094 C-129.3778541 58.90031785 -130.76103391 54.16410043 -131.72949219 48.65917969 C-136.46438562 53.39407312 -137.93378426 64.76889077 -138.16699219 71.40917969 C-137.51628918 81.59076793 -133.87389096 89.92489933 -128.9543457 98.69628906 C-126.75242507 102.62351616 -125.05978509 106.33076396 -123.72949219 110.65917969 C-123.39949219 110.98917969 -123.06949219 111.31917969 -122.72949219 111.65917969 C-120.97681161 111.62095008 -119.22559898 111.5030823 -117.47949219 111.34667969 C-116.52558594 111.26804687 -115.57167969 111.18941406 -114.58886719 111.10839844 C-111.70901413 110.65596251 -109.4132807 109.7624149 -106.72949219 108.65917969 C-105.73949219 108.65917969 -104.74949219 108.65917969 -103.72949219 108.65917969 C-108.4245113 113.94107619 -113.44302862 116.99074642 -120.41699219 118.40917969 C-125.27582862 120.24270287 -126.48469126 123.14194952 -128.72949219 127.65917969 C-129.55900391 129.2640625 -129.55900391 129.2640625 -130.40527344 130.90136719 C-133.59969332 136.86407938 -133.59969332 136.86407938 -134.70996094 143.38964844 C-133.35756405 146.52009701 -131.74776787 146.94094416 -128.66699219 148.28417969 C-125.92089844 149.76855469 -125.92089844 149.76855469 -123.72949219 151.65917969 C-122.84385679 155.45326269 -123.11690218 158.8338954 -123.72949219 162.65917969 C-118.79964894 164.69911482 -115.14988794 166.06570937 -109.72949219 165.65917969 C-110.87134953 170.13877387 -112.15964386 173.80440719 -114.72949219 177.65917969 C-113.88064453 177.94921875 -113.88064453 177.94921875 -113.01464844 178.24511719 C-112.28117187 178.50550781 -111.54769531 178.76589844 -110.79199219 179.03417969 C-110.06109375 179.28941406 -109.33019531 179.54464844 -108.57714844 179.80761719 C-106.72949219 180.65917969 -106.72949219 180.65917969 -105.72949219 182.65917969 C-105.49010158 186.19684087 -105.34658685 189.73347745 -105.20605469 193.27636719 C-104.6987392 196.87747545 -104.17650149 198.06925682 -101.72949219 200.65917969 C-94.28025252 203.22362773 -86.00731034 200.87009792 -78.60449219 199.22167969 C-76.88359375 198.85719727 -76.88359375 198.85719727 -75.12792969 198.48535156 C-72.32533206 197.88979957 -69.52638191 197.28088832 -66.72949219 196.65917969 C-66.82488281 195.69238281 -66.92027344 194.72558594 -67.01855469 193.72949219 C-68.43676799 177.07373129 -68.43676799 177.07373129 -64.72949219 169.65917969 C-64.4033633 166.0717619 -64.48641786 164.10481596 -66.22949219 160.90917969 C-68.29526018 156.43334904 -68.4545996 152.51424668 -67.72949219 147.65917969 C-65.73292091 143.80373171 -64.33241581 142.06112877 -60.72949219 139.65917969 C-56.52774859 139.42574949 -52.82419819 139.77973252 -48.72949219 140.65917969 C-48.17261719 139.68078125 -47.61574219 138.70238281 -47.04199219 137.69433594 C-37.34218696 120.91305152 -26.32335759 109.94097281 -7.58105469 103.59277344 C-2.66880831 102.4020768 2.17939967 101.9535168 7.20800781 101.53417969 C8.17802734 101.4478125 9.14804687 101.36144531 10.14746094 101.27246094 C12.52134792 101.0619685 14.89559487 100.85770083 17.27050781 100.65917969 C17.2841332 99.24384236 17.29376212 97.82846627 17.30175781 96.41308594 C17.31045898 95.23081421 17.31045898 95.23081421 17.31933594 94.0246582 C17.25339769 90.83027985 16.80622275 87.80650494 16.27050781 84.65917969 C17.26050781 84.98917969 18.25050781 85.31917969 19.27050781 85.65917969 C26.34284955 87.63715856 32.8447148 87.25348644 39.27050781 83.65917969 C47.69830555 77.56550775 52.40576604 66.8473343 54.79785156 56.96386719 C56.95753532 41.8639295 56.06090074 26.5862281 47.27050781 13.65917969 C43.44582934 8.56323025 39.42700114 4.26814485 33.33300781 1.90917969 C27.41462434 1.19179987 23.38697124 1.43358318 18.27050781 4.65917969 C11.84380437 10.16778264 9.00091095 16.87753075 6.27050781 24.65917969 C5.83222656 24.03011719 5.39394531 23.40105469 4.94238281 22.75292969 C-5.06518417 9.24678238 -18.64991457 3.48046834 -34.72949219 0.34667969 C-64.37867144 -3.74829328 -97.40760841 3.96425438 -118.72949219 25.65917969 Z " fill="#6B3E0A" transform="translate(287.7294921875,73.3408203125)"/>
<path d="M0 0 C1.8125 0.0625 1.8125 0.0625 4 1 C4.75358755 2.70376317 5.49898258 4.4130625 6.15625 6.15625 C8.12968063 10.46856137 12.2057432 13.32996744 16 16 C15.67 16.99 15.34 17.98 15 19 C9.67316448 19.50731767 7.17473006 18.26718004 3 15 C1.8553125 14.13375 1.8553125 14.13375 0.6875 13.25 C-1.86290912 9.8494545 -1.86539881 7.23993752 -2 3 C-1.34 2.01 -0.68 1.02 0 0 Z " fill="#6B3E0A" transform="translate(263,242)"/>
<path d="M0 0 C3.63004596 1.21001532 3.79942138 2.02587869 5.625 5.25 C8.83739328 10.33628936 12.57866105 12.60256344 18 15 C16.4375 17.0625 16.4375 17.0625 14 19 C9.68394435 19.07847374 7.63880277 18.50813857 4.25 15.8125 C0.7774416 11.47180199 -1.14563572 8.80588287 -0.6875 3.125 C-0.460625 2.09375 -0.23375 1.0625 0 0 Z " fill="#6B3E0A" transform="translate(294,276)"/>
<path d="M0 0 C0.8353125 1.0828125 0.8353125 1.0828125 1.6875 2.1875 C3.98123652 4.97717956 6.4140111 7.48206344 9 10 C9.66 10.66 10.32 11.32 11 12 C10 13 10 13 6.1875 13.3125 C3.05126875 13.2731566 2.20345504 13.14607028 -0.4375 11.25 C-2.91888466 7.67680608 -2.91888466 7.67680608 -3 5 C-1.5625 2.25 -1.5625 2.25 0 0 Z " fill="#6B3E0A" transform="translate(264,277)"/>
</svg>
